700 0 1 0           
30 Autodesk Translation Framework 20 ASM 228.6.0.65535 NT 24 Sat Feb 25 11:05:43 2023 
1 9.999999999999999547e-07 1.000000000000000036e-10 
body $1 -1 $-1 $2 $-1 $3 #
rgb_color-st-attrib $-1 -1 $4 $-1 $0 0.152941176470588247 0.152941176470588247 0.152941176470588247 #
lump $-1 -1 $-1 $-1 $5 $0 #
transform $-1 -1 1 0 0 0 1 0 0 0 1 0 0 0 1 no_rotate no_reflect no_shear #
ATTRIB_CUSTOM-attrib $-1 -1 $-1 $1 $0 @20 Timestamp_attrib_def 1 1677269732902365 #
shell $-1 -1 $-1 $-1 $-1 $6 $-1 $2 #
face $7 -1 $-1 $8 $9 $5 $-1 $10 forward single #
DXID-attrib $-1 -1 $-1 $-1 $6 @10 ASM ENTITY @1 0 #
face $11 -1 $-1 $12 $13 $5 $-1 $14 forward single #
loop $-1 -1 $-1 $15 $16 $6 #
cone-surface $-1 -1 $-1 -453.0475000000012074 6.300967088004951652e-12 0.2277088177900576937 1 -2.68072074283068687e-14 -1.224646799147353207e-16 -8.821239253829045768e-13 -32.50000000000513012 1.080290241671472641e-28 1 I I 0 1 32.50000000000513012 forward I I I I #
DXID-attrib $-1 -1 $-1 $-1 $8 @10 ASM ENTITY @1 1 #
face $17 -1 $-1 $18 $19 $5 $-1 $20 forward single #
loop $-1 -1 $-1 $21 $22 $8 #
plane-surface $-1 -1 $-1 -230.1750000000026262 -31.00000000000015277 0.2277088177900310484 1 -2.68072074283068687e-14 -1.224646799147353207e-16 -1.224646799147353256e-15 0 -10 forward_v I I I I #
loop $-1 -1 $-1 $-1 $23 $6 #
coedge $-1 -1 $-1 $16 $16 $24 $25 forward $9 $-1 #
DXID-attrib $-1 -1 $-1 $-1 $12 @10 ASM ENTITY @1 2 #
face $26 -1 $-1 $27 $28 $5 $-1 $29 forward single #
loop $-1 -1 $-1 $30 $31 $12 #
cone-surface $-1 -1 $-1 -228.8500000000017565 2.908582005971391856e-13 0.2277088177900310484 1 -2.68072074283068687e-14 -1.224646799147353207e-16 -8.414105134419674113e-13 -30.99999999999797495 1.030430692055636375e-28 1 I I 0 1 30.99999999999797495 forward I I I I #
loop $-1 -1 $-1 $-1 $32 $8 #
coedge $-1 -1 $-1 $22 $22 $23 $33 forward $13 $-1 #
coedge $-1 -1 $-1 $23 $23 $22 $33 reversed $15 $-1 #
coedge $-1 -1 $-1 $24 $24 $16 $25 reversed $34 $-1 #
edge $-1 -1 $-1 $35 -1.570796326794896558 $35 4.712388980384689674 $24 $36 forward @7 unknown #
DXID-attrib $-1 -1 $-1 $-1 $18 @10 ASM ENTITY @1 3 #
face $37 -1 $-1 $38 $39 $5 $-1 $40 forward single #
loop $-1 -1 $-1 $41 $42 $18 #
plane-surface $-1 -1 $-1 -227.5250000000014552 -32.49999999999522515 0.2277088177900310484 -1 2.68072074283068687e-14 1.224646799147353207e-16 1.224646799147353256e-15 0 10 forward_v I I I I #
loop $-1 -1 $-1 $-1 $43 $12 #
coedge $-1 -1 $-1 $31 $31 $32 $44 forward $19 $-1 #
coedge $-1 -1 $-1 $32 $32 $31 $44 reversed $21 $-1 #
edge $-1 -1 $-1 $45 -1.570796326794896558 $45 4.712388980384689674 $22 $46 forward @7 unknown #
loop $-1 -1 $-1 $-1 $24 $47 #
vertex $-1 -1 $-1 $25 $48 #
ellipse-curve $-1 -1 $-1 -675.9200000000005275 1.227555642557026006e-11 0.2277088177900843391 1 -2.68072074283068687e-14 -1.224646799147353207e-16 -3.980102097230335142e-15 0 -32.50000000001173106 1 I I #
DXID-attrib $-1 -1 $-1 $-1 $27 @10 ASM ENTITY @1 4 #
face $49 -1 $-1 $50 $51 $5 $-1 $52 forward single #
loop $-1 -1 $-1 $53 $54 $27 #
cone-surface $-1 -1 $-1 -222.7625000000006139 1.276693253772896935e-13 0.2277088177900310484 1 -2.68072074283068687e-14 -1.224646799147353207e-16 -8.82123925382704042e-13 -32.49999999999774047 1.080290241671227134e-28 1 I I 0 1 32.49999999999774047 forward I I I I #
loop $-1 -1 $-1 $-1 $55 $18 #
coedge $-1 -1 $-1 $42 $42 $43 $56 forward $28 $-1 #
coedge $-1 -1 $-1 $43 $43 $42 $56 reversed $30 $-1 #
edge $-1 -1 $-1 $57 -1.570796326794896558 $57 4.712388980384689674 $31 $58 forward @7 unknown #
vertex $-1 -1 $-1 $33 $59 #
ellipse-curve $-1 -1 $-1 -230.1750000000017735 3.263777504396444583e-13 0.2277088177900310484 1 -2.68072074283068687e-14 -1.224646799147353207e-16 -3.980102097228717188e-15 0 -32.49999999999852207 1 I I #
face $60 -1 $-1 $-1 $61 $5 $-1 $62 forward single #
point $-1 -1 $-1 -675.920000000001437 -32.49999999999945999 0.2277088177900843391 #
DXID-attrib $-1 -1 $-1 $-1 $38 @10 ASM ENTITY @1 5 #
face $63 -1 $-1 $64 $65 $5 $-1 $66 forward single #
loop $-1 -1 $-1 $67 $68 $38 #
plane-surface $-1 -1 $-1 -218.0000000000014779 -30 0.2277088177900310484 1 -2.68072074283068687e-14 -1.224646799147353207e-16 -1.224646799147353256e-15 0 -10 forward_v I I I I #
loop $-1 -1 $-1 $-1 $69 $27 #
coedge $-1 -1 $-1 $54 $54 $55 $70 forward $39 $-1 #
coedge $-1 -1 $-1 $55 $55 $54 $70 reversed $41 $-1 #
edge $-1 -1 $-1 $71 -1.570796326794896558 $71 4.712388980384689674 $42 $72 forward @7 unknown #
vertex $-1 -1 $-1 $44 $73 #
ellipse-curve $-1 -1 $-1 -230.1750000000017735 3.263777504396444583e-13 0.2277088177900310484 1 -2.68072074283068687e-14 -1.224646799147353207e-16 -3.796405077356852702e-15 0 -31.00000000000047606 1 I I #
point $-1 -1 $-1 -230.1750000000026262 -32.49999999999820233 0.2277088177900310484 #
DXID-attrib $-1 -1 $-1 $-1 $47 @10 ASM ENTITY @2 15 #
loop $-1 -1 $-1 $34 $74 $47 #
plane-surface $-1 -1 $-1 -675.920000000001437 -32.49999999999945999 0.2277088177900843391 -1 2.68072074283068687e-14 1.224646799147353207e-16 1.224646799147353256e-15 0 10 forward_v I I I I #
DXID-attrib $-1 -1 $-1 $-1 $50 @10 ASM ENTITY @1 6 #
face $75 -1 $-1 $76 $77 $5 $-1 $78 forward single #
loop $-1 -1 $-1 $79 $80 $50 #
cone-surface $-1 -1 $-1 -219.9050000000006833 5.106773015090577996e-14 0.2277088177900310484 1 -2.68072074283068687e-14 -1.224646799147353207e-16 -8.142682388148616592e-13 -30.00000000000004974 9.97190992311972802e-29 1 I I 0 -1 30.00000000000004974 forward I I I I #
loop $-1 -1 $-1 $-1 $81 $38 #
coedge $-1 -1 $-1 $68 $68 $69 $82 forward $51 $-1 #
coedge $-1 -1 $-1 $69 $69 $68 $82 reversed $53 $-1 #
edge $-1 -1 $-1 $83 -1.570796326794896558 $83 4.712388980384689674 $54 $84 forward @7 unknown #
vertex $-1 -1 $-1 $56 $85 #
ellipse-curve $-1 -1 $-1 -227.5250000000017394 2.553386507546318935e-13 0.2277088177900310484 1 -2.68072074283068687e-14 -1.224646799147353207e-16 -3.796405077356240546e-15 0 -30.99999999999547384 1 I I #
point $-1 -1 $-1 -230.1750000000026262 -31.00000000000015277 0.2277088177900310484 #
coedge $-1 -1 $-1 $74 $74 $86 $87 forward $61 $-1 #
DXID-attrib $-1 -1 $-1 $-1 $64 @10 ASM ENTITY @1 7 #
face $88 -1 $-1 $89 $90 $5 $-1 $91 forward single #
loop $-1 -1 $-1 $92 $93 $64 #
plane-surface $-1 -1 $-1 -221.8100000000014802 -31.5 0.2277088177900310484 -1 2.68072074283068687e-14 1.224646799147353207e-16 1.224646799147353256e-15 0 10 forward_v I I I I #
loop $-1 -1 $-1 $-1 $94 $50 #
coedge $-1 -1 $-1 $80 $80 $81 $95 forward $65 $-1 #
coedge $-1 -1 $-1 $81 $81 $80 $95 reversed $67 $-1 #
edge $-1 -1 $-1 $96 -1.570796326794896558 $96 4.712388980384689674 $68 $97 forward @7 unknown #
vertex $-1 -1 $-1 $70 $98 #
ellipse-curve $-1 -1 $-1 -227.5250000000006025 2.553386507546016012e-13 0.2277088177900310484 1 -2.68072074283068687e-14 -1.224646799147353207e-16 -3.980102097228343268e-15 0 -32.49999999999547384 1 I I #
point $-1 -1 $-1 -227.5250000000025921 -30.9999999999952216 0.2277088177900310484 #
coedge $-1 -1 $-1 $86 $86 $74 $87 reversed $99 $-1 #
edge $-1 -1 $-1 $100 -1.570796326794896558 $100 4.712388980384689674 $74 $101 forward @7 unknown #
DXID-attrib $-1 -1 $-1 $-1 $76 @10 ASM ENTITY @1 8 #
face $102 -1 $-1 $103 $104 $5 $-1 $105 forward single #
loop $-1 -1 $-1 $106 $107 $76 #
cone-surface $-1 -1 $-1 -222.9100000000005934 1.316233884729652736e-13 0.2277088177900310484 1 -2.68072074283068687e-14 -1.224646799147353207e-16 -8.549816507556068727e-13 -31.50000000000013145 1.047050541927574323e-28 1 I I 0 -1 31.50000000000013145 forward I I I I #
loop $-1 -1 $-1 $-1 $108 $64 #
coedge $-1 -1 $-1 $93 $93 $94 $109 forward $77 $-1 #
coedge $-1 -1 $-1 $94 $94 $93 $109 reversed $79 $-1 #
edge $-1 -1 $-1 $110 -1.570796326794896558 $110 4.712388980384689674 $80 $111 forward @7 unknown #
vertex $-1 -1 $-1 $82 $112 #
ellipse-curve $-1 -1 $-1 -218.0000000000006253 -2.221432309102369244e-26 0.2277088177900310484 1 -2.68072074283068687e-14 -1.224646799147353207e-16 -3.980102097228897837e-15 0 -32.5 1 I I #
point $-1 -1 $-1 -227.5250000000014552 -32.49999999999522515 0.2277088177900310484 #
loop $-1 -1 $-1 $-1 $86 $113 #
vertex $-1 -1 $-1 $87 $114 #
ellipse-curve $-1 -1 $-1 -675.9200000000005275 1.227555642557026167e-11 0.2277088177900843391 1 -2.68072074283068687e-14 -1.224646799147353207e-16 -3.673940397443496482e-15 0 -30.00000000001173106 1 I I #
DXID-attrib $-1 -1 $-1 $-1 $89 @10 ASM ENTITY @1 9 #
face $115 -1 $-1 $116 $117 $5 $-1 $118 forward single #
loop $-1 -1 $-1 $119 $120 $89 #
plane-surface $-1 -1 $-1 -224.0100000000014688 -30 0.2277088177900310484 1 -2.68072074283068687e-14 -1.224646799147353207e-16 -1.224646799147353256e-15 0 -10 forward_v I I I I #
loop $-1 -1 $-1 $-1 $121 $76 #
coedge $-1 -1 $-1 $107 $107 $108 $122 forward $90 $-1 #
coedge $-1 -1 $-1 $108 $108 $107 $122 reversed $92 $-1 #
edge $-1 -1 $-1 $123 -1.570796326794896558 $123 4.712388980384689674 $93 $124 forward @7 unknown #
vertex $-1 -1 $-1 $95 $125 #
ellipse-curve $-1 -1 $-1 -218.0000000000006821 -2.019483917365790222e-26 0.2277088177900310484 1 -2.68072074283068687e-14 -1.224646799147353207e-16 -3.673940397442059178e-15 0 -30 1 I I #
point $-1 -1 $-1 -218.0000000000014779 -32.5 0.2277088177900310484 #
face $126 -1 $-1 $47 $127 $5 $-1 $128 forward single #
point $-1 -1 $-1 -675.920000000001437 -29.99999999999945999 0.2277088177900843391 #
DXID-attrib $-1 -1 $-1 $-1 $103 @10 ASM ENTITY @2 10 #
face $129 -1 $-1 $130 $131 $5 $-1 $132 forward single #
loop $-1 -1 $-1 $133 $134 $103 #
cone-surface $-1 -1 $-1 -446.9600000000006048 6.137778212785119527e-12 0.2277088177900576937 1 -2.68072074283068687e-14 -1.224646799147353207e-16 -8.142682388150177653e-13 -30.00000000000579803 9.971909923121640513e-29 1 I I 0 -1 30.00000000000579803 forward I I I I #
loop $-1 -1 $-1 $-1 $135 $89 #
coedge $-1 -1 $-1 $120 $120 $121 $136 forward $104 $-1 #
coedge $-1 -1 $-1 $121 $121 $120 $136 reversed $106 $-1 #
edge $-1 -1 $-1 $137 -1.570796326794896558 $137 4.712388980384689674 $107 $138 forward @7 unknown #
vertex $-1 -1 $-1 $109 $139 #
ellipse-curve $-1 -1 $-1 -221.8100000000006844 1.021354603018297353e-13 0.2277088177900310484 1 -2.68072074283068687e-14 -1.224646799147353207e-16 -3.6739403974420718e-15 0 -30.00000000000010303 1 I I #
point $-1 -1 $-1 -218.0000000000014779 -30 0.2277088177900310484 #
DXID-attrib $-1 -1 $-1 $-1 $113 @10 ASM ENTITY @2 14 #
loop $-1 -1 $-1 $99 $140 $113 #
cone-surface $-1 -1 $-1 -674.0150000000006685 1.22244886954193361e-11 0.2277088177900843391 1 -2.68072074283068687e-14 -1.224646799147353207e-16 -8.14268238815175487e-13 -30.00000000001161382 9.971909923123573183e-29 1 I I 0 -1 30.00000000001161382 forward I I I I #
DXID-attrib $-1 -1 $-1 $-1 $116 @10 ASM ENTITY @2 11 #
face $141 -1 $-1 $142 $143 $5 $-1 $144 forward single #
loop $-1 -1 $-1 $145 $146 $116 #
plane-surface $-1 -1 $-1 -669.9100000000014461 -31.49999999999932498 0.2277088177900843391 -1 2.68072074283068687e-14 1.224646799147353207e-16 1.224646799147353256e-15 0 10 forward_v I I I I #
loop $-1 -1 $-1 $-1 $147 $103 #
coedge $-1 -1 $-1 $134 $134 $135 $148 forward $117 $-1 #
coedge $-1 -1 $-1 $135 $135 $134 $148 reversed $119 $-1 #
edge $-1 -1 $-1 $149 -1.570796326794896558 $149 4.712388980384689674 $120 $150 forward @7 unknown #
vertex $-1 -1 $-1 $122 $151 #
ellipse-curve $-1 -1 $-1 -221.8100000000006276 1.021354603018277158e-13 0.2277088177900310484 1 -2.68072074283068687e-14 -1.224646799147353207e-16 -3.857637417314175311e-15 0 -31.50000000000009948 1 I I #
point $-1 -1 $-1 -221.8100000000014802 -30 0.2277088177900310484 #
coedge $-1 -1 $-1 $140 $140 $152 $153 forward $127 $-1 #
DXID-attrib $-1 -1 $-1 $-1 $130 @10 ASM ENTITY @2 12 #
face $154 -1 $-1 $113 $155 $5 $-1 $156 forward single #
loop $-1 -1 $-1 $157 $158 $130 #
cone-surface $-1 -1 $-1 -671.0100000000005593 1.214393303709727499e-11 0.2277088177900843391 1 -2.68072074283068687e-14 -1.224646799147353207e-16 -8.549816507559145411e-13 -31.50000000001146461 1.047050541927950992e-28 1 I I 0 -1 31.50000000001146461 forward I I I I #
loop $-1 -1 $-1 $-1 $159 $116 #
coedge $-1 -1 $-1 $146 $146 $147 $160 forward $131 $-1 #
coedge $-1 -1 $-1 $147 $147 $146 $160 reversed $133 $-1 #
edge $-1 -1 $-1 $161 -1.570796326794896558 $161 4.712388980384689674 $134 $162 forward @7 unknown #
vertex $-1 -1 $-1 $136 $163 #
ellipse-curve $-1 -1 $-1 -224.0100000000006162 1.611113166441028314e-13 0.2277088177900310484 1 -2.68072074283068687e-14 -1.224646799147353207e-16 -3.857637417314181622e-15 0 -31.50000000000015987 1 I I #
point $-1 -1 $-1 -221.8100000000014802 -31.5 0.2277088177900310484 #
coedge $-1 -1 $-1 $152 $152 $140 $153 reversed $164 $-1 #
edge $-1 -1 $-1 $165 -1.570796326794896558 $165 4.712388980384689674 $140 $166 forward @7 unknown #
DXID-attrib $-1 -1 $-1 $-1 $142 @10 ASM ENTITY @2 13 #
loop $-1 -1 $-1 $164 $167 $142 #
plane-surface $-1 -1 $-1 -672.1100000000013779 -29.99999999999931788 0.2277088177900843391 1 -2.68072074283068687e-14 -1.224646799147353207e-16 -1.224646799147353256e-15 0 -10 forward_v I I I I #
loop $-1 -1 $-1 $-1 $168 $130 #
coedge $-1 -1 $-1 $158 $158 $159 $169 forward $143 $-1 #
coedge $-1 -1 $-1 $159 $159 $158 $169 reversed $145 $-1 #
edge $-1 -1 $-1 $170 -1.570796326794896558 $170 4.712388980384689674 $146 $171 forward @7 unknown #
vertex $-1 -1 $-1 $148 $172 #
ellipse-curve $-1 -1 $-1 -224.010000000000673 1.611113166441048508e-13 0.2277088177900310484 1 -2.68072074283068687e-14 -1.224646799147353207e-16 -3.673940397442078899e-15 0 -30.00000000000015987 1 I I #
point $-1 -1 $-1 -224.0100000000014688 -31.5 0.2277088177900310484 #
loop $-1 -1 $-1 $-1 $152 $142 #
vertex $-1 -1 $-1 $153 $173 #
ellipse-curve $-1 -1 $-1 -672.1100000000005821 1.217342096526841215e-11 0.2277088177900843391 1 -2.68072074283068687e-14 -1.224646799147353207e-16 -3.673940397443466506e-15 0 -30.00000000001148948 1 I I #
coedge $-1 -1 $-1 $167 $167 $168 $174 forward $155 $-1 #
coedge $-1 -1 $-1 $168 $168 $167 $174 reversed $157 $-1 #
edge $-1 -1 $-1 $175 -1.570796326794896558 $175 4.712388980384689674 $158 $176 forward @7 unknown #
vertex $-1 -1 $-1 $160 $177 #
ellipse-curve $-1 -1 $-1 -669.9100000000005366 1.211444510892613622e-11 0.2277088177900843391 1 -2.68072074283068687e-14 -1.224646799147353207e-16 -3.673940397443460195e-15 0 -30.00000000001143974 1 I I #
point $-1 -1 $-1 -224.0100000000014688 -30 0.2277088177900310484 #
point $-1 -1 $-1 -672.1100000000013779 -29.99999999999931788 0.2277088177900843391 #
edge $-1 -1 $-1 $178 -1.570796326794896558 $178 4.712388980384689674 $167 $179 forward @7 unknown #
vertex $-1 -1 $-1 $169 $180 #
ellipse-curve $-1 -1 $-1 -669.9100000000005366 1.211444510892613622e-11 0.2277088177900843391 1 -2.68072074283068687e-14 -1.224646799147353207e-16 -3.857637417315563706e-15 0 -31.50000000001143974 1 I I #
point $-1 -1 $-1 -669.9100000000014461 -29.99999999999932498 0.2277088177900843391 #
vertex $-1 -1 $-1 $174 $181 #
ellipse-curve $-1 -1 $-1 -672.1100000000005821 1.217342096526841053e-11 0.2277088177900843391 1 -2.68072074283068687e-14 -1.224646799147353207e-16 -3.857637417315569228e-15 0 -31.50000000001148948 1 I I #
point $-1 -1 $-1 -669.9100000000014461 -31.49999999999932498 0.2277088177900843391 #
point $-1 -1 $-1 -672.1100000000013779 -31.49999999999931433 0.2277088177900843391 #
End-of-ACIS-data 