  0
SECTION
  2
HEADER
  9
$ACADVER
  1
AC1009
  9
$DWGCODEPAGE
  3
ansi_1252
  9
$INSBASE
 10
0.0
 20
0.0
 30
0.0
  9
$EXTMIN
 10
135.8323561195361
 20
74.8625238107535
 30
-0.0000000000000005
  9
$EXTMAX
 10
402.8781982818552
 20
281.6545662420438
 30
0.0000000000000005
  9
$LIMMIN
 10
0.0
 20
0.0
  9
$LIMMAX
 10
420.0
 20
297.0
  9
$ORTHOMODE
 70
     0
  9
$REGENMODE
 70
     1
  9
$FILLMODE
 70
     1
  9
$QTEXTMODE
 70
     0
  9
$MIRRTEXT
 70
     1
  9
$DRAGMODE
 70
     2
  9
$LTSCALE
 40
12.7
  9
$OSMODE
 70
    23
  9
$ATTMODE
 70
     1
  9
$TEXTSIZE
 40
3.5
  9
$TRACEWID
 40
1.0
  9
$TEXTSTYLE
  7
ONSHAPE-STANDARD
  9
$CLAYER
  8
0
  9
$CELTYPE
  6
BYLAYER
  9
$CECOLOR
 62
   256
  9
$DIMSCALE
 40
1.0
  9
$DIMASZ
 40
2.5
  9
$DIMEXO
 40
0.625
  9
$DIMDLI
 40
3.75
  9
$DIMRND
 40
0.0
  9
$DIMDLE
 40
0.0
  9
$DIMEXE
 40
1.25
  9
$DIMTP
 40
0.0
  9
$DIMTM
 40
0.0
  9
$DIMTXT
 40
3.5
  9
$DIMCEN
 40
2.5
  9
$DIMTSZ
 40
0.0
  9
$DIMTOL
 70
     0
  9
$DIMLIM
 70
     0
  9
$DIMTIH
 70
     1
  9
$DIMTOH
 70
     1
  9
$DIMSE1
 70
     0
  9
$DIMSE2
 70
     0
  9
$DIMTAD
 70
     1
  9
$DIMZIN
 70
     8
  9
$DIMBLK
  1

  9
$DIMASO
 70
     1
  9
$DIMSHO
 70
     1
  9
$DIMPOST
  1

  9
$DIMAPOST
  1

  9
$DIMALT
 70
     0
  9
$DIMALTD
 70
     3
  9
$DIMALTF
 40
0.03937
  9
$DIMLFAC
 40
1.0
  9
$DIMTOFL
 70
     1
  9
$DIMTVP
 40
0.0
  9
$DIMTIX
 70
     0
  9
$DIMSOXD
 70
     0
  9
$DIMSAH
 70
     0
  9
$DIMBLK1
  1

  9
$DIMBLK2
  1

  9
$DIMSTYLE
  2
ONSHAPE-ISO-25
  9
$DIMCLRD
 70
     5
  9
$DIMCLRE
 70
     5
  9
$DIMCLRT
 70
     5
  9
$DIMTFAC
 40
1.0
  9
$DIMGAP
 40
0.625
  9
$LUNITS
 70
     2
  9
$LUPREC
 70
     4
  9
$SKETCHINC
 40
1.0
  9
$FILLETRAD
 40
10.0
  9
$AUNITS
 70
     0
  9
$AUPREC
 70
     0
  9
$MENU
  1
.
  9
$ELEVATION
 40
0.0
  9
$PELEVATION
 40
0.0
  9
$THICKNESS
 40
0.0
  9
$LIMCHECK
 70
     0
  9
$CHAMFERA
 40
0.0
  9
$CHAMFERB
 40
0.0
  9
$SKPOLY
 70
     0
  9
$TDCREATE
 40
2459984.766537569
  9
$TDUPDATE
 40
2459984.766538669
  9
$TDINDWG
 40
0.0
  9
$TDUSRTIMER
 40
0.0
  9
$USRTIMER
 70
     1
  9
$ANGBASE
 50
0.0
  9
$ANGDIR
 70
     0
  9
$PDMODE
 70
    33
  9
$PDSIZE
 40
1.0
  9
$PLINEWID
 40
0.0
  9
$COORDS
 70
     1
  9
$SPLFRAME
 70
     0
  9
$SPLINETYPE
 70
     6
  9
$SPLINESEGS
 70
     8
  9
$ATTDIA
 70
     0
  9
$ATTREQ
 70
     1
  9
$HANDLING
 70
     1
  9
$HANDSEED
  5
1D2
  9
$SURFTAB1
 70
     6
  9
$SURFTAB2
 70
     6
  9
$SURFTYPE
 70
     6
  9
$SURFU
 70
     6
  9
$SURFV
 70
     6
  9
$UCSNAME
  2

  9
$UCSORG
 10
0.0
 20
0.0
 30
0.0
  9
$UCSXDIR
 10
1.0
 20
0.0
 30
0.0
  9
$UCSYDIR
 10
0.0
 20
1.0
 30
0.0
  9
$PUCSNAME
  2

  9
$PUCSORG
 10
0.0
 20
0.0
 30
0.0
  9
$PUCSXDIR
 10
1.0
 20
0.0
 30
0.0
  9
$PUCSYDIR
 10
0.0
 20
1.0
 30
0.0
  9
$USERI1
 70
     0
  9
$USERI2
 70
     0
  9
$USERI3
 70
     0
  9
$USERI4
 70
     0
  9
$USERI5
 70
     0
  9
$USERR1
 40
0.0
  9
$USERR2
 40
0.0
  9
$USERR3
 40
0.0
  9
$USERR4
 40
0.0
  9
$USERR5
 40
0.0
  9
$WORLDVIEW
 70
     1
  9
$SHADEDGE
 70
     3
  9
$SHADEDIF
 70
    70
  9
$TILEMODE
 70
     1
  9
$MAXACTVP
 70
    64
  9
$PLIMCHECK
 70
     0
  9
$PEXTMIN
 10
1.000000000000000E+20
 20
1.000000000000000E+20
 30
1.000000000000000E+20
  9
$PEXTMAX
 10
-1.000000000000000E+20
 20
-1.000000000000000E+20
 30
-1.000000000000000E+20
  9
$PLIMMIN
 10
0.0
 20
0.0
  9
$PLIMMAX
 10
420.0
 20
297.0
  9
$UNITMODE
 70
     0
  9
$VISRETAIN
 70
     1
  9
$PLINEGEN
 70
     0
  9
$PSLTSCALE
 70
     1
  0
ENDSEC
  0
SECTION
  2
TABLES
  0
TABLE
  2
VPORT
 70
     1
  0
VPORT
  2
*ACTIVE
 70
     0
 10
0.0
 20
0.0
 11
1.0
 21
1.0
 12
269.3552772006956
 22
178.2585450263986
 13
0.0
 23
0.0
 14
10.0
 24
10.0
 15
10.0
 25
10.0
 16
0.0
 26
0.0
 36
1.0
 17
0.0
 27
0.0
 37
0.0
 40
210.9278832799161
 41
1.291373879877651
 42
50.0
 43
0.0
 44
0.0
 50
0.0
 51
0.0
 71
     0
 72
   100
 73
     1
 74
     3
 75
     0
 76
     0
 77
     0
 78
     0
  0
ENDTAB
  0
TABLE
  2
LTYPE
 70
     1
  0
LTYPE
  2
CONTINUOUS
 70
     0
  3
Solid line
 72
    65
 73
     0
 40
0.0
  0
ENDTAB
  0
TABLE
  2
LAYER
 70
     4
  0
LAYER
  2
0
 70
     0
 62
     7
  6
CONTINUOUS
  0
LAYER
  2
DEFPOINTS
 70
     0
 62
     7
  6
CONTINUOUS
  0
LAYER
  2
VISIBLE
 70
     0
 62
     7
  6
CONTINUOUS
  0
LAYER
  2
TANGENT_LINES
 70
     0
 62
     7
  6
CONTINUOUS
  0
ENDTAB
  0
TABLE
  2
STYLE
 70
    30
  0
STYLE
  2
STANDARD
 70
     0
 40
0.0
 41
1.0
 50
0.0
 71
     0
 42
3.5
  3
txt
  4

  0
STYLE
  2
ONSHAPE-STANDARD
 70
     0
 40
0.0
 41
1.0
 50
0.0
 71
     0
 42
3.5
  3
NotoSans-Regular.ttf
  4

  0
STYLE
  2
ONSHAPE-STANDARD-DIMENSION
 70
     0
 40
0.0
 41
1.0
 50
0.0
 71
     0
 42
3.5
  3

  4

  0
STYLE
  2
ONSHAPE-STANDARD-BOLD
 70
     0
 40
0.0
 41
1.0
 50
0.0
 71
     0
 42
3.5
  3
NotoSans-Bold.ttf
  4

  0
STYLE
  2
ONSHAPE-STANDARD-FIELDS
 70
     0
 40
0.0
 41
1.0
 50
0.0
 71
     0
 42
3.5
  3

  4

  0
STYLE
  2
ONSHAPE-STANDARD-TCFIELDS
 70
     0
 40
0.0
 41
1.0
 50
0.0
 71
     0
 42
3.5
  3
NotoSansTC-Regular.otf
  4

  0
STYLE
  2
ONSHAPE-STANDARD-SCFIELDS
 70
     0
 40
0.0
 41
1.0
 50
0.0
 71
     0
 42
3.5
  3
NotoSansSC-Regular.otf
  4

  0
STYLE
  2
ONSHAPE-STANDARD-KOREANFIE
 70
     0
 40
0.0
 41
1.0
 50
0.0
 71
     0
 42
3.5
  3
NotoSansKR-Regular.otf
  4

  0
STYLE
  2
TTFSTYLE
 70
     0
 40
0.0
 41
1.0
 50
0.0
 71
     0
 42
3.5
  3
Verdana.ttf
  4

  0
STYLE
  2
ONSHAPE-STANDARD-GTOLERANC
 70
     0
 40
3.5
 41
1.0
 50
0.0
 71
     0
 42
3.5
  3

  4

  0
STYLE
  2
ONSHAPE-STANDARD-TABLE-DAT
 70
     0
 40
0.0
 41
1.0
 50
0.0
 71
     0
 42
3.5
  3
NotoSans-Regular.ttf
  4

  0
STYLE
  2
ONSHAPE-STANDARD-TABLE-TIT
 70
     0
 40
0.0
 41
1.0
 50
0.0
 71
     0
 42
3.5
  3
NotoSans-Bold.ttf
  4

  0
STYLE
  2
ONSHAPE-STANDARD-TABLE-HEA
 70
     0
 40
0.0
 41
1.0
 50
0.0
 71
     0
 42
3.5
  3
NotoSans-Bold.ttf
  4

  0
STYLE
  2
ONSHAPE-STANDARD-BOMTABLE-
 70
     0
 40
0.0
 41
1.0
 50
0.0
 71
     0
 42
3.5
  3
NotoSans-Regular.ttf
  4

  0
STYLE
  2
ONSHAPE-STANDARD-BOMTABLE0
 70
     0
 40
0.0
 41
1.0
 50
0.0
 71
     0
 42
3.5
  3
NotoSans-Bold.ttf
  4

  0
STYLE
  2
ONSHAPE-STANDARD-BOMTABLE1
 70
     0
 40
0.0
 41
1.0
 50
0.0
 71
     0
 42
3.5
  3
NotoSans-Bold.ttf
  4

  0
STYLE
  2
ONSHAPE-STANDARD-NOTESTYLE
 70
     0
 40
3.5
 41
1.0
 50
0.0
 71
     0
 42
3.5
  3
Noto Sans
  4

  0
STYLE
  2
ONSHAPE-STANDARD-VIEW-LABE
 70
     0
 40
3.5
 41
1.0
 50
0.0
 71
     0
 42
3.5
  3
NotoSans-Regular.ttf
  4

  0
STYLE
  2
ONSHAPE-STANDARD-HOLE-CALL
 70
     0
 40
3.5
 41
1.0
 50
0.0
 71
     0
 42
3.5
  3
Noto Sans
  4

  0
STYLE
  2
ONSHAPE-STANDARD-HOLETABLE
 70
     0
 40
0.0
 41
1.0
 50
0.0
 71
     0
 42
3.5
  3
NotoSans-Regular.ttf
  4

  0
STYLE
  2
ONSHAPE-STANDARD-HOLETABL0
 70
     0
 40
0.0
 41
1.0
 50
0.0
 71
     0
 42
3.5
  3
NotoSans-Bold.ttf
  4

  0
STYLE
  2
ONSHAPE-STANDARD-HOLETABL1
 70
     0
 40
0.0
 41
1.0
 50
0.0
 71
     0
 42
3.5
  3
NotoSans-Bold.ttf
  4

  0
STYLE
  2
ONSHAPE-STANDARD-HOLE-TAG
 70
     0
 40
3.5
 41
1.0
 50
0.0
 71
     0
 42
3.5
  3
Noto Sans
  4

  0
STYLE
  2
ONSHAPE-STANDARD-REVISIONT
 70
     0
 40
0.0
 41
1.0
 50
0.0
 71
     0
 42
3.5
  3
NotoSans-Regular.ttf
  4

  0
STYLE
  2
ONSHAPE-STANDARD-REVISION0
 70
     0
 40
0.0
 41
1.0
 50
0.0
 71
     0
 42
3.5
  3
NotoSans-Bold.ttf
  4

  0
STYLE
  2
ONSHAPE-STANDARD-REVISION1
 70
     0
 40
0.0
 41
1.0
 50
0.0
 71
     0
 42
3.5
  3
NotoSans-Bold.ttf
  4

  0
STYLE
  2
ONSHAPE-STANDARD-REVISION-
 70
     0
 40
3.5
 41
1.0
 50
0.0
 71
     0
 42
3.5
  3
Noto Sans
  4

  0
STYLE
  2
ONSHAPE-STANDARD-CUTLISTTA
 70
     0
 40
0.0
 41
1.0
 50
0.0
 71
     0
 42
3.5
  3
NotoSans-Regular.ttf
  4

  0
STYLE
  2
ONSHAPE-STANDARD-CUTLISTT0
 70
     0
 40
0.0
 41
1.0
 50
0.0
 71
     0
 42
3.5
  3
NotoSans-Bold.ttf
  4

  0
STYLE
  2
ONSHAPE-STANDARD-CUTLISTT1
 70
     0
 40
0.0
 41
1.0
 50
0.0
 71
     0
 42
3.5
  3
NotoSans-Bold.ttf
  4

  0
ENDTAB
  0
TABLE
  2
VIEW
 70
     0
  0
ENDTAB
  0
TABLE
  2
UCS
 70
     0
  0
ENDTAB
  0
TABLE
  2
APPID
 70
     1
  0
APPID
  2
ACAD
 70
     0
  0
ENDTAB
  0
TABLE
  2
DIMSTYLE
 70
    18
  0
DIMSTYLE
  2
ISO-25
 70
     0
  3

  4

  5

  6

  7

 40
1.0
 41
2.5
 42
0.625
 43
3.75
 44
1.25
 45
0.0
 46
0.0
 47
0.0
 48
0.0
140
2.5
141
2.5
142
0.0
143
0.03937007874016
144
1.0
145
0.0
146
1.0
147
0.625
 71
     0
 72
     0
 73
     0
 74
     0
 75
     0
 76
     0
 77
     1
 78
     8
170
     0
171
     3
172
     1
173
     0
174
     0
175
     0
176
     0
177
     0
178
     0
  0
DIMSTYLE
  2
ONSHAPE-ISO-25
 70
     0
  3

  4

  5

  6

  7

 40
1.0
 41
2.5
 42
0.625
 43
3.75
 44
1.25
 45
0.0
 46
0.0
 47
0.0
 48
0.0
140
3.5
141
2.5
142
0.0
143
0.03937
144
1.0
145
0.0
146
1.0
147
0.625
 71
     0
 72
     0
 73
     1
 74
     1
 75
     0
 76
     0
 77
     1
 78
     8
170
     0
171
     3
172
     1
173
     0
174
     0
175
     0
176
     5
177
     5
178
     5
  0
DIMSTYLE
  2
ISO
 70
     0
  3

  4
"
  5

  6

  7

 40
1.0
 41
3.5
 42
1.0
 43
10.0
 44
1.0
 45
0.0
 46
0.0
 47
0.1
 48
0.1
140
3.5
141
0.0
142
0.0
143
0.03937
144
1.0
145
0.0
146
0.71
147
1.5
 71
     0
 72
     0
 73
     1
 74
     1
 75
     0
 76
     0
 77
     1
 78
     8
170
     0
171
     3
172
     1
173
     0
174
     0
175
     0
176
     5
177
     5
178
     5
  0
DIMSTYLE
  2
ISO$3
 70
     0
  3

  4
"
  5

  6

  7

 40
1.0
 41
3.5
 42
1.0
 43
10.0
 44
1.0
 45
0.0
 46
0.0
 47
0.1
 48
0.1
140
3.5
141
0.0
142
0.0
143
0.03937
144
1.0
145
0.0
146
0.71
147
1.5
 71
     0
 72
     0
 73
     1
 74
     1
 75
     0
 76
     0
 77
     1
 78
     8
170
     0
171
     3
172
     0
173
     0
174
     0
175
     0
176
     5
177
     5
178
     5
  0
DIMSTYLE
  2
ISO$4
 70
     0
  3

  4
"
  5

  6

  7

 40
1.0
 41
3.5
 42
1.0
 43
10.0
 44
1.0
 45
0.0
 46
0.0
 47
0.1
 48
0.1
140
3.5
141
0.0
142
0.0
143
0.03937
144
1.0
145
0.0
146
0.71
147
1.5
 71
     0
 72
     0
 73
     1
 74
     1
 75
     0
 76
     0
 77
     1
 78
     8
170
     0
171
     3
172
     1
173
     0
174
     0
175
     0
176
     5
177
     5
178
     5
  0
DIMSTYLE
  2
ISO$6
 70
     0
  3

  4
"
  5

  6

  7

 40
1.0
 41
0.5
 42
1.0
 43
10.0
 44
1.0
 45
0.0
 46
0.0
 47
0.1
 48
0.1
140
3.5
141
0.0
142
0.0
143
0.03937
144
1.0
145
0.0
146
0.71
147
1.5
 71
     0
 72
     0
 73
     1
 74
     1
 75
     0
 76
     0
 77
     0
 78
     8
170
     0
171
     3
172
     1
173
     0
174
     0
175
     0
176
     5
177
     5
178
     5
  0
DIMSTYLE
  2
ISO$7
 70
     0
  3

  4
"
  5

  6

  7

 40
1.0
 41
3.5
 42
1.0
 43
10.0
 44
1.0
 45
0.0
 46
0.0
 47
0.1
 48
0.1
140
3.5
141
0.0
142
0.0
143
0.03937
144
1.0
145
0.0
146
0.71
147
1.5
 71
     0
 72
     0
 73
     1
 74
     1
 75
     0
 76
     0
 77
     1
 78
     8
170
     0
171
     3
172
     1
173
     0
174
     0
175
     0
176
     5
177
     5
178
     5
  0
DIMSTYLE
  2
ISO$SF
 70
     0
  3

  4
"
  5

  6

  7

 40
1.0
 41
3.5
 42
1.0
 43
10.0
 44
1.0
 45
0.0
 46
0.0
 47
0.1
 48
0.1
140
3.5
141
0.0
142
0.0
143
0.03937
144
1.0
145
0.0
146
0.71
147
1.5
 71
     0
 72
     0
 73
     1
 74
     1
 75
     1
 76
     1
 77
     1
 78
     8
170
     0
171
     3
172
     1
173
     0
174
     0
175
     0
176
     5
177
     5
178
     5
  0
DIMSTYLE
  2
ISO$SH
 70
     0
  3

  4
"
  5

  6

  7

 40
1.0
 41
3.5
 42
1.0
 43
10.0
 44
1.0
 45
0.0
 46
0.0
 47
0.1
 48
0.1
140
3.5
141
0.0
142
0.0
143
0.03937
144
2.0
145
0.0
146
0.71
147
1.5
 71
     0
 72
     0
 73
     1
 74
     1
 75
     1
 76
     1
 77
     1
 78
     8
170
     0
171
     3
172
     1
173
     1
174
     0
175
     0
176
     5
177
     5
178
     5
  0
DIMSTYLE
  2
ONSHAPE-ISO-25$0
 70
     0
  3

  4

  5

  6

  7

 40
1.0
 41
2.5
 42
0.625
 43
3.75
 44
1.25
 45
0.0
 46
0.0
 47
0.0
 48
0.0
140
3.5
141
2.5
142
0.0
143
0.03937
144
1.0
145
0.0
146
1.0
147
0.625
 71
     0
 72
     0
 73
     1
 74
     1
 75
     0
 76
     0
 77
     1
 78
     8
170
     0
171
     3
172
     1
173
     0
174
     0
175
     0
176
     5
177
     5
178
     5
  0
DIMSTYLE
  2
ONSHAPE-ISO-25$2
 70
     0
  3

  4

  5

  6

  7

 40
1.0
 41
2.5
 42
0.625
 43
3.75
 44
1.25
 45
0.0
 46
0.0
 47
0.0
 48
0.0
140
3.5
141
2.5
142
0.0
143
0.03937
144
1.0
145
0.0
146
1.0
147
0.625
 71
     0
 72
     0
 73
     1
 74
     1
 75
     0
 76
     0
 77
     1
 78
     8
170
     0
171
     3
172
     1
173
     0
174
     0
175
     0
176
     5
177
     5
178
     5
  0
DIMSTYLE
  2
ONSHAPE-ISO-25$3
 70
     0
  3

  4

  5

  6

  7

 40
1.0
 41
2.5
 42
0.625
 43
3.75
 44
1.25
 45
0.0
 46
0.0
 47
0.0
 48
0.0
140
3.5
141
0.0
142
0.0
143
0.03937
144
1.0
145
0.0
146
1.0
147
0.625
 71
     0
 72
     0
 73
     1
 74
     1
 75
     0
 76
     0
 77
     1
 78
     8
170
     0
171
     3
172
     1
173
     0
174
     0
175
     0
176
     5
177
     5
178
     5
  0
DIMSTYLE
  2
ONSHAPE-ISO-25$4
 70
     0
  3

  4

  5

  6

  7

 40
1.0
 41
2.5
 42
0.625
 43
3.75
 44
1.25
 45
0.0
 46
0.0
 47
0.0
 48
0.0
140
3.5
141
0.0
142
0.0
143
0.03937
144
1.0
145
0.0
146
1.0
147
0.625
 71
     0
 72
     0
 73
     1
 74
     1
 75
     0
 76
     0
 77
     1
 78
     8
170
     0
171
     3
172
     1
173
     0
174
     0
175
     0
176
     5
177
     5
178
     5
  0
DIMSTYLE
  2
ONSHAPE-ISO-25$6
 70
     0
  3

  4

  5

  6

  7

 40
1.0
 41
0.5
 42
0.625
 43
3.75
 44
1.25
 45
0.0
 46
0.0
 47
0.0
 48
0.0
140
3.5
141
2.5
142
0.0
143
0.03937
144
1.0
145
0.0
146
1.0
147
0.625
 71
     0
 72
     0
 73
     1
 74
     1
 75
     0
 76
     0
 77
     1
 78
     8
170
     0
171
     3
172
     1
173
     0
174
     0
175
     0
176
     5
177
     5
178
     5
  0
DIMSTYLE
  2
ONSHAPE-ISO-25$7
 70
     0
  3

  4

  5

  6

  7

 40
1.0
 41
2.5
 42
0.625
 43
3.75
 44
1.25
 45
0.0
 46
0.0
 47
0.0
 48
0.0
140
3.5
141
2.5
142
0.0
143
0.03937
144
1.0
145
0.0
146
1.0
147
0.625
 71
     0
 72
     0
 73
     1
 74
     1
 75
     0
 76
     0
 77
     1
 78
     8
170
     0
171
     3
172
     1
173
     0
174
     0
175
     0
176
     5
177
     5
178
     5
  0
DIMSTYLE
  2
ONSHAPE-STANDARD-GTOLERANC
 70
     0
  3

  4

  5

  6

  7

 40
1.0
 41
2.5
 42
0.625
 43
3.75
 44
1.25
 45
0.0
 46
0.0
 47
0.0
 48
0.0
140
3.5
141
2.5
142
0.0
143
0.03937
144
1.0
145
0.0
146
1.0
147
0.625
 71
     0
 72
     0
 73
     1
 74
     1
 75
     0
 76
     0
 77
     1
 78
     8
170
     0
171
     3
172
     1
173
     0
174
     0
175
     0
176
     5
177
     5
178
     5
  0
DIMSTYLE
  2
ONSHAPE-ORDINATESTYLE
 70
     0
  3

  4

  5

  6

  7

 40
1.0
 41
2.5
 42
0.625
 43
3.75
 44
1.25
 45
0.0
 46
0.0
 47
0.0
 48
0.0
140
3.5
141
2.5
142
0.0
143
0.03937
144
1.0
145
0.0
146
1.0
147
0.625
 71
     0
 72
     0
 73
     1
 74
     1
 75
     0
 76
     0
 77
     1
 78
     8
170
     0
171
     3
172
     1
173
     0
174
     0
175
     0
176
     5
177
     5
178
     5
  0
DIMSTYLE
  2
ONSHAPE-CHAMFERDIMSTYLE
 70
     0
  3

  4

  5

  6

  7

 40
1.0
 41
2.5
 42
0.625
 43
3.75
 44
1.25
 45
0.0
 46
0.0
 47
0.0
 48
0.0
140
3.5
141
2.5
142
0.0
143
0.03937
144
1.0
145
0.0
146
1.0
147
0.625
 71
     0
 72
     0
 73
     1
 74
     1
 75
     0
 76
     0
 77
     1
 78
     8
170
     0
171
     3
172
     1
173
     0
174
     0
175
     0
176
     5
177
     5
178
     5
  0
ENDTAB
  0
ENDSEC
  0
SECTION
  2
BLOCKS
  0
BLOCK
  8
0
  2
$MODEL_SPACE
 70
     0
 10
0.0
 20
0.0
 30
0.0
  3
$MODEL_SPACE
  1

  0
ENDBLK
  5
21
  8
0
  0
BLOCK
 67
     1
  8
0
  2
$PAPER_SPACE
 70
     0
 10
0.0
 20
0.0
 30
0.0
  3
$PAPER_SPACE
  1

  0
ENDBLK
  5
1D
 67
     1
  8
0
  0
ENDSEC
  0
SECTION
  2
ENTITIES
  0
LINE
  5
77
  8
VISIBLE
 10
135.8323561195361
 20
185.5525676137978
 30
0.0
 11
135.8323561195361
 21
190.5525676137978
 31
0.0
  0
LINE
  5
78
  8
TANGENT_LINES
 10
140.8323561195361
 20
190.5525676137978
 30
0.0
 11
140.8323561195361
 21
185.5525676137978
 31
0.0
  0
LINE
  5
79
  8
VISIBLE
 10
140.8323561195361
 20
185.5525676137978
 30
0.0
 11
135.8323561195361
 21
185.5525676137978
 31
0.0
  0
LINE
  5
7A
  8
VISIBLE
 10
135.8323561195361
 20
190.5525676137978
 30
0.0
 11
140.8323561195361
 21
190.5525676137978
 31
0.0
  0
LINE
  5
7B
  8
VISIBLE
 10
170.8323561195361
 20
170.5525676137977
 30
0.0
 11
165.8323561195361
 21
170.5525676137977
 31
0.0
  0
LINE
  5
7C
  8
TANGENT_LINES
 10
165.8323561195361
 20
175.5525676137977
 30
0.0
 11
170.8323561195361
 21
175.5525676137977
 31
0.0
  0
LINE
  5
7D
  8
VISIBLE
 10
165.8323561195361
 20
170.5525676137977
 30
0.0
 11
165.8323561195361
 21
175.5525676137977
 31
0.0
  0
LINE
  5
7E
  8
VISIBLE
 10
170.8323561195361
 20
175.5525676137977
 30
0.0
 11
170.8323561195361
 21
170.5525676137977
 31
0.0
  0
LINE
  5
7F
  8
VISIBLE
 10
165.8323561195361
 20
175.5525676137977
 30
0.0
 11
165.8323561195361
 21
185.5525676137978
 31
0.0
  0
LINE
  5
80
  8
VISIBLE
 10
165.8323561195361
 20
185.5525676137978
 30
0.0
 11
140.8323561195361
 21
185.5525676137978
 31
0.0
  0
LINE
  5
81
  8
VISIBLE
 10
170.8323561195361
 20
190.5525676137978
 30
0.0
 11
170.8323561195361
 21
175.5525676137977
 31
0.0
  0
LINE
  5
82
  8
VISIBLE
 10
140.8323561195361
 20
190.5525676137978
 30
0.0
 11
170.8323561195361
 21
190.5525676137978
 31
0.0
  0
CIRCLE
  5
86
  8
VISIBLE
 10
231.4616756201815
 20
180.5525676137977
 30
0.0
 40
2.625
  0
CIRCLE
  5
87
  8
VISIBLE
 10
251.4616756201815
 20
180.5525676137977
 30
0.0
 40
2.625
  0
LINE
  5
88
  8
VISIBLE
 10
261.4616756201815
 20
175.5525676137977
 30
0.0
 11
261.4616756201815
 21
185.5525676137978
 31
0.0
  0
LINE
  5
89
  8
VISIBLE
 10
221.4616756201815
 20
175.5525676137977
 30
0.0
 11
221.4616756201815
 21
185.5525676137978
 31
0.0
  0
LINE
  5
8A
  8
VISIBLE
 10
256.4616756201815
 20
170.5525676137977
 30
0.0
 11
226.4616756201815
 21
170.5525676137977
 31
0.0
  0
LINE
  5
8B
  8
TANGENT_LINES
 10
256.4616756201815
 20
185.5525676137978
 30
0.0
 11
256.4616756201815
 21
190.5525676137978
 31
0.0
  0
LINE
  5
8C
  8
TANGENT_LINES
 10
226.4616756201815
 20
190.5525676137978
 30
0.0
 11
226.4616756201815
 21
185.5525676137978
 31
0.0
  0
LINE
  5
8D
  8
VISIBLE
 10
221.4616756201815
 20
185.5525676137978
 30
0.0
 11
221.4616756201815
 21
190.5525676137978
 31
0.0
  0
LINE
  5
8E
  8
VISIBLE
 10
256.4616756201815
 20
185.5525676137978
 30
0.0
 11
226.4616756201815
 21
185.5525676137978
 31
0.0
  0
LINE
  5
8F
  8
VISIBLE
 10
256.4616756201815
 20
190.5525676137978
 30
0.0
 11
226.4616756201815
 21
190.5525676137978
 31
0.0
  0
LINE
  5
90
  8
VISIBLE
 10
261.4616756201815
 20
190.5525676137978
 30
0.0
 11
261.4616756201815
 21
185.5525676137978
 31
0.0
  0
LINE
  5
91
  8
VISIBLE
 10
226.4616756201815
 20
185.5525676137978
 30
0.0
 11
221.4616756201815
 21
185.5525676137978
 31
0.0
  0
ARC
  5
92
  8
VISIBLE
 10
226.4616756201815
 20
175.5525676137977
 30
-0.0000000000000005
 40
5.0
 50
179.9999999999997
 51
270.0
  0
LINE
  5
93
  8
VISIBLE
 10
221.4616756201815
 20
190.5525676137977
 30
0.0
 11
226.4616756201815
 21
190.5525676137977
 31
0.0
  0
LINE
  5
94
  8
VISIBLE
 10
261.4616756201815
 20
185.5525676137978
 30
0.0
 11
256.4616756201815
 21
185.5525676137978
 31
0.0
  0
ARC
  5
95
  8
VISIBLE
 10
256.4616756201815
 20
175.5525676137977
 30
0.0000000000000005
 40
5.0
 50
270.0
 51
0.0000000000003257
  0
LINE
  5
96
  8
VISIBLE
 10
256.4616756201815
 20
190.5525676137978
 30
0.0
 11
261.4616756201815
 21
190.5525676137978
 31
0.0
  0
ARC
  5
99
  8
VISIBLE
 10
140.8323561195361
 20
109.8625238107535
 30
-0.0000000000000005
 40
5.0
 50
90.0
 51
179.9999999999998
  0
LINE
  5
9A
  8
VISIBLE
 10
140.8323561195361
 20
114.8625238107535
 30
0.0
 11
170.8323561195361
 21
114.8625238107535
 31
0.0
  0
LINE
  5
9B
  8
VISIBLE
 10
170.8323561195361
 20
74.8625238107535
 30
0.0
 11
170.8323561195361
 21
114.8625238107535
 31
0.0
  0
LINE
  5
9C
  8
VISIBLE
 10
140.8323561195361
 20
74.8625238107535
 30
0.0
 11
170.8323561195361
 21
74.8625238107535
 31
0.0
  0
ARC
  5
9D
  8
VISIBLE
 10
140.8323561195361
 20
79.8625238107535
 30
0.0000000000000005
 40
5.0
 50
179.9999999999998
 51
270.0
  0
LINE
  5
9E
  8
VISIBLE
 10
135.8323561195361
 20
79.8625238107535
 30
0.0
 11
135.8323561195361
 21
109.8625238107535
 31
0.0
  0
LINE
  5
9F
  8
VISIBLE
 10
151.7073561195361
 20
107.3625238107535
 30
0.0
 11
151.7073561195361
 21
82.3625238107535
 31
0.0
  0
ARC
  5
A0
  8
VISIBLE
 10
153.3323561195361
 20
82.3625238107535
 30
0.0
 40
1.625000000000001
 50
180.0
 51
0.0
  0
LINE
  5
A1
  8
VISIBLE
 10
154.9573561195361
 20
107.3625238107535
 30
0.0
 11
154.9573561195361
 21
82.3625238107535
 31
0.0
  0
ARC
  5
A2
  8
VISIBLE
 10
153.3323561195361
 20
107.3625238107535
 30
0.0
 40
1.625000000000001
 50
0.0
 51
180.0
  0
LINE
  5
A6
  8
VISIBLE
 10
372.0939270343933
 20
239.7365831877451
 30
0.0
 11
375.629460940326
 21
237.6953417354258
 31
0.0
  0
LINE
  5
A7
  8
VISIBLE
 10
351.9162575047296
 20
266.5203661821797
 30
0.0
 11
351.9162575047296
 21
262.4378832775411
 31
0.0
  0
LINE
  5
A8
  8
TANGENT_LINES
 10
386.3495772716196
 20
269.2250111065028
 30
0.0
 11
386.3495772716196
 21
267.8982041624953
 31
0.0
  0
LINE
  5
A9
  8
TANGENT_LINES
 10
399.3426643759225
 20
250.1904345636252
 30
0.0
 11
395.8071304699897
 21
252.2316760159445
 31
0.0
  0
LINE
  5
AA
  8
TANGENT_LINES
 10
374.5939270343933
 20
239.9842273020286
 30
0.0
 11
378.129460940326
 21
237.9429858497093
 31
0.0
  0
LINE
  5
AB
  8
VISIBLE
 10
381.6649948462588
 20
280.8090563484149
 30
0.0
 11
402.8781982818552
 21
268.5616076344991
 31
0.0
  0
LINE
  5
AC
  8
TANGENT_LINES
 10
399.3426643759225
 20
258.3554003729025
 30
0.0
 11
402.8781982818552
 21
256.3141589205832
 31
0.0
  0
LINE
  5
AD
  8
VISIBLE
 10
386.3495772716196
 20
267.8982041624953
 30
0.0
 11
368.6719077419559
 21
257.6919969008987
 31
0.0
  0
LINE
  5
AE
  8
VISIBLE
 10
399.3426643759225
 20
258.3554003729025
 30
0.0
 11
399.3426643759225
 21
266.5203661821797
 31
0.0
  0
LINE
  5
AF
  8
VISIBLE
 10
371.0583931284606
 20
242.0254687543479
 30
0.0
 11
371.0583931284606
 21
250.1904345636252
 31
0.0
  0
LINE
  5
B0
  8
VISIBLE
 10
402.8781982818552
 20
268.5616076344991
 30
0.0
 11
402.8781982818552
 21
256.3141589205832
 31
0.0
  0
LINE
  5
B1
  8
VISIBLE
 10
395.8071304699897
 20
252.2316760159445
 30
0.0
 11
374.5939270343933
 21
239.9842273020286
 31
0.0
  0
LINE
  5
B2
  8
VISIBLE
 10
399.3426643759225
 20
266.5203661821797
 30
0.0
 11
381.6649948462588
 21
276.7265734437763
 31
0.0
  0
LINE
  5
B3
  8
VISIBLE
 10
384.0514802327634
 20
269.2250111065028
 30
0.0
 11
366.3738107030997
 21
259.0188038449062
 31
0.0
  0
LINE
  5
B4
  8
TANGENT_LINES
 10
368.6719077419559
 20
260.3456107889138
 30
0.0
 11
368.6719077419559
 21
257.6919969008987
 31
0.0
  0
LINE
  5
B5
  8
TANGENT_LINES
 10
374.5939270343933
 20
276.7265734437763
 30
0.0
 11
374.5939270343933
 21
280.8090563484149
 31
0.0
  0
LINE
  5
B6
  8
VISIBLE
 10
399.3426643759225
 20
250.1904345636252
 30
0.0
 11
378.129460940326
 21
237.9429858497093
 31
0.0
  0
LINE
  5
B7
  8
VISIBLE
 10
399.3426643759225
 20
266.5203661821797
 30
0.0
 11
371.0583931284606
 21
250.1904345636252
 31
0.0
  0
LINE
  5
B8
  8
TANGENT_LINES
 10
381.6649948462588
 20
280.8090563484149
 30
0.0
 11
381.6649948462588
 21
276.7265734437763
 31
0.0
  0
LINE
  5
B9
  8
TANGENT_LINES
 10
353.3807235987969
 20
268.5616076344991
 30
0.0
 11
353.3807235987969
 21
264.4791247298604
 31
0.0
  0
LINE
  5
BA
  8
VISIBLE
 10
371.0583931284606
 20
250.1904345636252
 30
0.0
 11
353.3807235987969
 21
260.3966418252218
 31
0.0
  0
LINE
  5
BB
  8
VISIBLE
 10
374.5939270343933
 20
276.7265734437763
 30
0.0
 11
353.3807235987969
 21
264.4791247298604
 31
0.0
  0
LINE
  5
BC
  8
VISIBLE
 10
374.5939270343933
 20
280.8090563484149
 30
0.0
 11
353.3807235987969
 21
268.5616076344991
 31
0.0
  0
POLYLINE
  5
BD
  8
VISIBLE
 66
     1
 10
0.0
 20
0.0
 30
0.0
  0
VERTEX
  5
124
  8
VISIBLE
 10
351.9162575047296
 20
266.5203661821797
 30
0.0
  0
VERTEX
  5
125
  8
VISIBLE
 10
352.0123311027134
 20
267.0835434318412
 30
0.0
  0
VERTEX
  5
126
  8
VISIBLE
 10
352.2968598421731
 20
267.6250780956317
 30
0.0
  0
VERTEX
  5
127
  8
VISIBLE
 10
352.7589094432169
 20
268.1241593001178
 30
0.0
  0
VERTEX
  5
128
  8
VISIBLE
 10
353.3807235987969
 20
268.5616076344991
 30
0.0
  0
SEQEND
  5
1C6
  8
VISIBLE
  0
POLYLINE
  5
BE
  8
VISIBLE
 66
     1
 10
0.0
 20
0.0
 30
0.0
  0
VERTEX
  5
129
  8
VISIBLE
 10
378.129460940326
 20
237.9429858497093
 30
0.0
  0
VERTEX
  5
12A
  8
VISIBLE
 10
377.4397124921186
 20
237.6232031617349
 30
0.0
  0
VERTEX
  5
12B
  8
VISIBLE
 10
376.7764706899605
 20
237.4725970716656
 30
0.0
  0
VERTEX
  5
12C
  8
VISIBLE
 10
376.1652235443582
 20
237.496955287082
 30
0.0
  0
VERTEX
  5
12D
  8
VISIBLE
 10
375.629460940326
 20
237.6953417354257
 30
0.0
  0
SEQEND
  5
1C7
  8
VISIBLE
  0
POLYLINE
  5
BF
  8
VISIBLE
 66
     1
 10
0.0
 20
0.0
 30
0.0
  0
VERTEX
  5
12E
  8
VISIBLE
 10
402.8781982818552
 20
256.3141589205831
 30
0.0
  0
VERTEX
  5
12F
  8
VISIBLE
 10
402.8102639892278
 20
255.4784841339562
 30
0.0
  0
VERTEX
  5
130
  8
VISIBLE
 10
402.6090717881135
 20
254.5964800964563
 30
0.0
  0
VERTEX
  5
131
  8
VISIBLE
 10
402.2823533819709
 20
253.702041728611
 30
0.0
  0
VERTEX
  5
132
  8
VISIBLE
 10
401.8426643759225
 20
252.8295417952897
 30
0.0
  0
VERTEX
  5
133
  8
VISIBLE
 10
401.3069017718902
 20
252.0125099796265
 30
0.0
  0
VERTEX
  5
134
  8
VISIBLE
 10
400.695654626288
 20
251.2823443561004
 30
0.0
  0
VERTEX
  5
135
  8
VISIBLE
 10
400.0324128241298
 20
250.6671047801421
 30
0.0
  0
VERTEX
  5
136
  8
VISIBLE
 10
399.3426643759225
 20
250.1904345636252
 30
0.0
  0
SEQEND
  5
1C8
  8
VISIBLE
  0
POLYLINE
  5
C0
  8
VISIBLE
 66
     1
 10
0.0
 20
0.0
 30
0.0
 70
     1
  0
VERTEX
  5
137
  8
VISIBLE
 10
390.959096564057
 20
256.0820836879683
 30
0.0
  0
VERTEX
  5
138
  8
VISIBLE
 10
391.2403719311739
 20
255.9779308025878
 30
0.0
  0
VERTEX
  5
139
  8
VISIBLE
 10
391.5612766826151
 20
255.9651427394942
 30
0.0
  0
VERTEX
  5
13A
  8
VISIBLE
 10
391.9094786287482
 20
256.0442109367806
 30
0.0
  0
VERTEX
  5
13B
  8
VISIBLE
 10
392.271596564057
 20
256.2120968479671
 30
0.0
  0
VERTEX
  5
13C
  8
VISIBLE
 10
392.6337144993659
 20
256.4623487116386
 30
0.0
  0
VERTEX
  5
13D
  8
VISIBLE
 10
392.9819164454989
 20
256.7853494890167
 30
0.0
  0
VERTEX
  5
13E
  8
VISIBLE
 10
393.3028211969401
 20
257.1686864413679
 30
0.0
  0
VERTEX
  5
13F
  8
VISIBLE
 10
393.584096564057
 20
257.5976281445911
 30
0.0
  0
VERTEX
  5
140
  8
VISIBLE
 10
393.8149332922324
 20
258.0556906095848
 30
0.0
  0
VERTEX
  5
141
  8
VISIBLE
 10
393.9864604554573
 20
258.5252707527035
 30
0.0
  0
VERTEX
  5
142
  8
VISIBLE
 10
394.0920863610423
 20
258.988322872391
 30
0.0
  0
VERTEX
  5
143
  8
VISIBLE
 10
394.1277518646717
 20
259.4270521353701
 30
0.0
  0
VERTEX
  5
144
  8
VISIBLE
 10
394.0920863610423
 20
259.8245984221068
 30
0.0
  0
VERTEX
  5
145
  8
VISIBLE
 10
393.9864604554573
 20
260.1656842517484
 30
0.0
  0
VERTEX
  5
146
  8
VISIBLE
 10
393.8149332922324
 20
260.4372018871448
 30
0.0
  0
VERTEX
  5
147
  8
VISIBLE
 10
393.584096564057
 20
260.6287170578366
 30
0.0
  0
VERTEX
  5
148
  8
VISIBLE
 10
393.3028211969401
 20
260.7328699432171
 30
0.0
  0
VERTEX
  5
149
  8
VISIBLE
 10
392.9819164454989
 20
260.7456580063107
 30
0.0
  0
VERTEX
  5
14A
  8
VISIBLE
 10
392.6337144993659
 20
260.6665898090243
 30
0.0
  0
VERTEX
  5
14B
  8
VISIBLE
 10
392.271596564057
 20
260.4987038978378
 30
0.0
  0
VERTEX
  5
14C
  8
VISIBLE
 10
391.9094786287482
 20
260.2484520341663
 30
0.0
  0
VERTEX
  5
14D
  8
VISIBLE
 10
391.5612766826151
 20
259.9254512567882
 30
0.0
  0
VERTEX
  5
14E
  8
VISIBLE
 10
391.2403719311739
 20
259.5421143044371
 30
0.0
  0
VERTEX
  5
14F
  8
VISIBLE
 10
390.959096564057
 20
259.1131726012139
 30
0.0
  0
VERTEX
  5
150
  8
VISIBLE
 10
390.7282598358816
 20
258.6551101362202
 30
0.0
  0
VERTEX
  5
151
  8
VISIBLE
 10
390.5567326726567
 20
258.1855299931014
 30
0.0
  0
VERTEX
  5
152
  8
VISIBLE
 10
390.4511067670717
 20
257.7224778734139
 30
0.0
  0
VERTEX
  5
153
  8
VISIBLE
 10
390.4154412634423
 20
257.2837486104348
 30
0.0
  0
VERTEX
  5
154
  8
VISIBLE
 10
390.4511067670717
 20
256.8862023236981
 30
0.0
  0
VERTEX
  5
155
  8
VISIBLE
 10
390.5567326726567
 20
256.5451164940565
 30
0.0
  0
VERTEX
  5
156
  8
VISIBLE
 10
390.7282598358816
 20
256.2735988586601
 30
0.0
  0
SEQEND
  5
1C9
  8
VISIBLE
  0
POLYLINE
  5
C1
  8
VISIBLE
 66
     1
 10
0.0
 20
0.0
 30
0.0
  0
VERTEX
  5
157
  8
VISIBLE
 10
381.6649948462588
 20
276.7265734437763
 30
0.0
  0
VERTEX
  5
158
  8
VISIBLE
 10
380.9073121054241
 20
277.0855780138863
 30
0.0
  0
VERTEX
  5
159
  8
VISIBLE
 10
380.0428781021515
 20
277.3523424754279
 30
0.0
  0
VERTEX
  5
15A
  8
VISIBLE
 10
379.1049125504067
 20
277.5166152197471
 30
0.0
  0
VERTEX
  5
15B
  8
VISIBLE
 10
378.1294609403261
 20
277.5720833374051
 30
0.0
  0
VERTEX
  5
15C
  8
VISIBLE
 10
377.1540093302454
 20
277.5166152197471
 30
0.0
  0
VERTEX
  5
15D
  8
VISIBLE
 10
376.2160437785006
 20
277.3523424754279
 30
0.0
  0
VERTEX
  5
15E
  8
VISIBLE
 10
375.351609775228
 20
277.0855780138863
 30
0.0
  0
VERTEX
  5
15F
  8
VISIBLE
 10
374.5939270343933
 20
276.7265734437763
 30
0.0
  0
SEQEND
  5
1CA
  8
VISIBLE
  0
POLYLINE
  5
C2
  8
VISIBLE
 66
     1
 10
0.0
 20
0.0
 30
0.0
  0
VERTEX
  5
160
  8
VISIBLE
 10
384.0514802327634
 20
269.2250111065028
 30
0.0
  0
VERTEX
  5
161
  8
VISIBLE
 10
384.2977271235346
 20
269.3416875917886
 30
0.0
  0
VERTEX
  5
162
  8
VISIBLE
 10
384.5786681745982
 20
269.4283860417896
 30
0.0
  0
VERTEX
  5
163
  8
VISIBLE
 10
384.8835069789153
 20
269.4817746836934
 30
0.0
  0
VERTEX
  5
164
  8
VISIBLE
 10
385.2005287521915
 20
269.4998018219322
 30
0.0
  0
VERTEX
  5
165
  8
VISIBLE
 10
385.5175505254678
 20
269.4817746836934
 30
0.0
  0
VERTEX
  5
166
  8
VISIBLE
 10
385.8223893297848
 20
269.4283860417896
 30
0.0
  0
VERTEX
  5
167
  8
VISIBLE
 10
386.1033303808484
 20
269.3416875917886
 30
0.0
  0
VERTEX
  5
168
  8
VISIBLE
 10
386.3495772716197
 20
269.2250111065028
 30
0.0
  0
VERTEX
  5
169
  8
VISIBLE
 10
386.5516668721832
 20
269.0828403978289
 30
0.0
  0
VERTEX
  5
16A
  8
VISIBLE
 10
386.7018329925224
 20
268.9206390063709
 30
0.0
  0
VERTEX
  5
16B
  8
VISIBLE
 10
386.7943048328468
 20
268.7446402406391
 30
0.0
  0
VERTEX
  5
16C
  8
VISIBLE
 10
386.8255287521915
 20
268.5616076344991
 30
0.0
  0
VERTEX
  5
16D
  8
VISIBLE
 10
386.7943048328468
 20
268.378575028359
 30
0.0
  0
VERTEX
  5
16E
  8
VISIBLE
 10
386.7018329925223
 20
268.2025762626271
 30
0.0
  0
VERTEX
  5
16F
  8
VISIBLE
 10
386.5516668721831
 20
268.0403748711691
 30
0.0
  0
VERTEX
  5
170
  8
VISIBLE
 10
386.3495772716196
 20
267.8982041624952
 30
0.0
  0
SEQEND
  5
1CB
  8
VISIBLE
  0
POLYLINE
  5
C3
  8
VISIBLE
 66
     1
 10
0.0
 20
0.0
 30
0.0
 70
     1
  0
VERTEX
  5
171
  8
VISIBLE
 10
376.816960940326
 20
247.9171178786911
 30
0.0
  0
VERTEX
  5
172
  8
VISIBLE
 10
377.0982363074429
 20
247.8129649933106
 30
0.0
  0
VERTEX
  5
173
  8
VISIBLE
 10
377.4191410588841
 20
247.800176930217
 30
0.0
  0
VERTEX
  5
174
  8
VISIBLE
 10
377.7673430050172
 20
247.8792451275034
 30
0.0
  0
VERTEX
  5
175
  8
VISIBLE
 10
378.129460940326
 20
248.0471310386899
 30
0.0
  0
VERTEX
  5
176
  8
VISIBLE
 10
378.4915788756348
 20
248.2973829023613
 30
0.0
  0
VERTEX
  5
177
  8
VISIBLE
 10
378.8397808217679
 20
248.6203836797394
 30
0.0
  0
VERTEX
  5
178
  8
VISIBLE
 10
379.1606855732091
 20
249.0037206320906
 30
0.0
  0
VERTEX
  5
179
  8
VISIBLE
 10
379.441960940326
 20
249.4326623353138
 30
0.0
  0
VERTEX
  5
17A
  8
VISIBLE
 10
379.6727976685014
 20
249.8907248003075
 30
0.0
  0
VERTEX
  5
17B
  8
VISIBLE
 10
379.8443248317263
 20
250.3603049434263
 30
0.0
  0
VERTEX
  5
17C
  8
VISIBLE
 10
379.9499507373113
 20
250.8233570631137
 30
0.0
  0
VERTEX
  5
17D
  8
VISIBLE
 10
379.9856162409407
 20
251.2620863260929
 30
0.0
  0
VERTEX
  5
17E
  8
VISIBLE
 10
379.9499507373113
 20
251.6596326128296
 30
0.0
  0
VERTEX
  5
17F
  8
VISIBLE
 10
379.8443248317263
 20
252.0007184424711
 30
0.0
  0
VERTEX
  5
180
  8
VISIBLE
 10
379.6727976685014
 20
252.2722360778675
 30
0.0
  0
VERTEX
  5
181
  8
VISIBLE
 10
379.441960940326
 20
252.4637512485594
 30
0.0
  0
VERTEX
  5
182
  8
VISIBLE
 10
379.1606855732091
 20
252.5679041339399
 30
0.0
  0
VERTEX
  5
183
  8
VISIBLE
 10
378.8397808217679
 20
252.5806921970334
 30
0.0
  0
VERTEX
  5
184
  8
VISIBLE
 10
378.4915788756348
 20
252.5016239997471
 30
0.0
  0
VERTEX
  5
185
  8
VISIBLE
 10
378.129460940326
 20
252.3337380885605
 30
0.0
  0
VERTEX
  5
186
  8
VISIBLE
 10
377.7673430050172
 20
252.0834862248891
 30
0.0
  0
VERTEX
  5
187
  8
VISIBLE
 10
377.4191410588841
 20
251.760485447511
 30
0.0
  0
VERTEX
  5
188
  8
VISIBLE
 10
377.0982363074429
 20
251.3771484951598
 30
0.0
  0
VERTEX
  5
189
  8
VISIBLE
 10
376.816960940326
 20
250.9482067919366
 30
0.0
  0
VERTEX
  5
18A
  8
VISIBLE
 10
376.5861242121506
 20
250.4901443269429
 30
0.0
  0
VERTEX
  5
18B
  8
VISIBLE
 10
376.4145970489257
 20
250.0205641838241
 30
0.0
  0
VERTEX
  5
18C
  8
VISIBLE
 10
376.3089711433407
 20
249.5575120641367
 30
0.0
  0
VERTEX
  5
18D
  8
VISIBLE
 10
376.2733056397113
 20
249.1187828011576
 30
0.0
  0
VERTEX
  5
18E
  8
VISIBLE
 10
376.3089711433407
 20
248.7212365144208
 30
0.0
  0
VERTEX
  5
18F
  8
VISIBLE
 10
376.4145970489258
 20
248.3801506847793
 30
0.0
  0
VERTEX
  5
190
  8
VISIBLE
 10
376.5861242121506
 20
248.1086330493829
 30
0.0
  0
SEQEND
  5
1CC
  8
VISIBLE
  0
POLYLINE
  5
C4
  8
VISIBLE
 66
     1
 10
0.0
 20
0.0
 30
0.0
  0
VERTEX
  5
191
  8
VISIBLE
 10
374.5939270343932
 20
280.8090563484149
 30
0.0
  0
VERTEX
  5
192
  8
VISIBLE
 10
375.351609775228
 20
281.168060918525
 30
0.0
  0
VERTEX
  5
193
  8
VISIBLE
 10
376.2160437785005
 20
281.4348253800665
 30
0.0
  0
VERTEX
  5
194
  8
VISIBLE
 10
377.1540093302453
 20
281.5990981243858
 30
0.0
  0
VERTEX
  5
195
  8
VISIBLE
 10
378.129460940326
 20
281.6545662420438
 30
0.0
  0
VERTEX
  5
196
  8
VISIBLE
 10
379.1049125504067
 20
281.5990981243858
 30
0.0
  0
VERTEX
  5
197
  8
VISIBLE
 10
380.0428781021515
 20
281.4348253800665
 30
0.0
  0
VERTEX
  5
198
  8
VISIBLE
 10
380.9073121054241
 20
281.1680609185249
 30
0.0
  0
VERTEX
  5
199
  8
VISIBLE
 10
381.6649948462588
 20
280.8090563484149
 30
0.0
  0
SEQEND
  5
1CD
  8
VISIBLE
  0
POLYLINE
  5
C5
  8
VISIBLE
 66
     1
 10
0.0
 20
0.0
 30
0.0
  0
VERTEX
  5
19A
  8
VISIBLE
 10
371.0583931284605
 20
242.0254687543479
 30
0.0
  0
VERTEX
  5
19B
  8
VISIBLE
 10
371.1263274210879
 20
241.2682377319923
 30
0.0
  0
VERTEX
  5
19C
  8
VISIBLE
 10
371.3275196222023
 20
240.6185504374369
 30
0.0
  0
VERTEX
  5
19D
  8
VISIBLE
 10
371.6542380283449
 20
240.1013739890628
 30
0.0
  0
VERTEX
  5
19E
  8
VISIBLE
 10
372.0939270343933
 20
239.7365831877451
 30
0.0
  0
VERTEX
  5
19F
  8
VISIBLE
 10
372.6296896384255
 20
239.5381967394013
 30
0.0
  0
VERTEX
  5
1A0
  8
VISIBLE
 10
373.2409367840278
 20
239.513838523985
 30
0.0
  0
VERTEX
  5
1A1
  8
VISIBLE
 10
373.9041785861859
 20
239.6644446140542
 30
0.0
  0
VERTEX
  5
1A2
  8
VISIBLE
 10
374.5939270343933
 20
239.9842273020286
 30
0.0
  0
SEQEND
  5
1CE
  8
VISIBLE
  0
POLYLINE
  5
C6
  8
VISIBLE
 66
     1
 10
0.0
 20
0.0
 30
0.0
  0
VERTEX
  5
1A3
  8
VISIBLE
 10
395.8071304699897
 20
252.2316760159445
 30
0.0
  0
VERTEX
  5
1A4
  8
VISIBLE
 10
396.4968789181971
 20
252.7083462324614
 30
0.0
  0
VERTEX
  5
1A5
  8
VISIBLE
 10
397.1601207203552
 20
253.3235858084198
 30
0.0
  0
VERTEX
  5
1A6
  8
VISIBLE
 10
397.7713678659575
 20
254.0537514319458
 30
0.0
  0
VERTEX
  5
1A7
  8
VISIBLE
 10
398.3071304699897
 20
254.8707832476091
 30
0.0
  0
VERTEX
  5
1A8
  8
VISIBLE
 10
398.7468194760381
 20
255.7432831809304
 30
0.0
  0
VERTEX
  5
1A9
  8
VISIBLE
 10
399.0735378821807
 20
256.6377215487757
 30
0.0
  0
VERTEX
  5
1AA
  8
VISIBLE
 10
399.2747300832951
 20
257.5197255862756
 30
0.0
  0
VERTEX
  5
1AB
  8
VISIBLE
 10
399.3426643759225
 20
258.3554003729025
 30
0.0
  0
SEQEND
  5
1CF
  8
VISIBLE
  0
POLYLINE
  5
C7
  8
VISIBLE
 66
     1
 10
0.0
 20
0.0
 30
0.0
  0
VERTEX
  5
1AC
  8
VISIBLE
 10
368.671907741956
 20
257.6919969008987
 30
0.0
  0
VERTEX
  5
1AD
  8
VISIBLE
 10
368.4256608511847
 20
257.5753204156129
 30
0.0
  0
VERTEX
  5
1AE
  8
VISIBLE
 10
368.1447198001211
 20
257.4886219656119
 30
0.0
  0
VERTEX
  5
1AF
  8
VISIBLE
 10
367.839880995804
 20
257.4352333237081
 30
0.0
  0
VERTEX
  5
1B0
  8
VISIBLE
 10
367.5228592225278
 20
257.4172061854693
 30
0.0
  0
VERTEX
  5
1B1
  8
VISIBLE
 10
367.2058374492516
 20
257.4352333237081
 30
0.0
  0
VERTEX
  5
1B2
  8
VISIBLE
 10
366.9009986449345
 20
257.4886219656119
 30
0.0
  0
VERTEX
  5
1B3
  8
VISIBLE
 10
366.620057593871
 20
257.5753204156129
 30
0.0
  0
VERTEX
  5
1B4
  8
VISIBLE
 10
366.3738107030997
 20
257.6919969008987
 30
0.0
  0
VERTEX
  5
1B5
  8
VISIBLE
 10
366.1717211025362
 20
257.8341676095725
 30
0.0
  0
VERTEX
  5
1B6
  8
VISIBLE
 10
366.021554982197
 20
257.9963690010305
 30
0.0
  0
VERTEX
  5
1B7
  8
VISIBLE
 10
365.9290831418726
 20
258.1723677667625
 30
0.0
  0
VERTEX
  5
1B8
  8
VISIBLE
 10
365.8978592225278
 20
258.3554003729025
 30
0.0
  0
VERTEX
  5
1B9
  8
VISIBLE
 10
365.9290831418726
 20
258.5384329790425
 30
0.0
  0
VERTEX
  5
1BA
  8
VISIBLE
 10
366.021554982197
 20
258.7144317447743
 30
0.0
  0
VERTEX
  5
1BB
  8
VISIBLE
 10
366.1717211025361
 20
258.8766331362323
 30
0.0
  0
VERTEX
  5
1BC
  8
VISIBLE
 10
366.3738107030997
 20
259.0188038449062
 30
0.0
  0
SEQEND
  5
1D0
  8
VISIBLE
  0
POLYLINE
  5
C8
  8
VISIBLE
 66
     1
 10
0.0
 20
0.0
 30
0.0
  0
VERTEX
  5
1BD
  8
VISIBLE
 10
353.3807235987968
 20
264.4791247298604
 30
0.0
  0
VERTEX
  5
1BE
  8
VISIBLE
 10
352.7589094432168
 20
264.0416763954792
 30
0.0
  0
VERTEX
  5
1BF
  8
VISIBLE
 10
352.2968598421731
 20
263.542595190993
 30
0.0
  0
VERTEX
  5
1C0
  8
VISIBLE
 10
352.0123311027134
 20
263.0010605272026
 30
0.0
  0
VERTEX
  5
1C1
  8
VISIBLE
 10
351.9162575047296
 20
262.4378832775411
 30
0.0
  0
VERTEX
  5
1C2
  8
VISIBLE
 10
352.0123311027134
 20
261.8747060278796
 30
0.0
  0
VERTEX
  5
1C3
  8
VISIBLE
 10
352.2968598421731
 20
261.3331713640891
 30
0.0
  0
VERTEX
  5
1C4
  8
VISIBLE
 10
352.7589094432169
 20
260.834090159603
 30
0.0
  0
VERTEX
  5
1C5
  8
VISIBLE
 10
353.3807235987969
 20
260.3966418252218
 30
0.0
  0
SEQEND
  5
1D1
  8
VISIBLE
  0
ENDSEC
  0
EOF
