<?xml version="1.0" encoding="utf-8"?>
<!-- Generator: Adobe Illustrator 23.0.3, SVG Export Plug-In . SVG Version: 6.00 Build 0)  -->
<svg version="1.0" id="Calque_1" xmlns="http://www.w3.org/2000/svg" xmlns:xlink="http://www.w3.org/1999/xlink" x="0px" y="0px"
	 viewBox="0 0 595.276 841.89" enable-background="new 0 0 595.276 841.89" xml:space="preserve">
<g>
	<g>
		<path d="M258.292,393.105c2.558,0,5.117,0.007,7.675-0.002c1.839-0.007,3.678-0.037,5.517-0.056
			c1.909-0.02,3.817-0.041,5.726-0.062c1.849-0.02,3.698-0.04,5.546-0.059c1.749-0.018,3.498-0.062,5.246-0.038
			c0.975,0.014,1.95,0.13,2.922,0.225c0.806,0.079,1.606,0.219,2.412,0.292c1.024,0.093,2.027,0.298,3.024,0.53
			c1.431,0.333,2.862,0.67,4.281,1.049c0.903,0.241,1.796,0.529,2.675,0.85c1.288,0.47,2.576,0.948,3.832,1.497
			c1.284,0.561,2.549,1.175,3.786,1.834c1.315,0.701,2.597,1.467,3.876,2.234c0.751,0.451,1.487,0.933,2.196,1.446
			c0.967,0.7,1.925,1.418,2.847,2.176c1.006,0.828,1.971,1.707,2.946,2.571c0.517,0.458,1.027,0.924,1.523,1.404
			c0.366,0.354,0.713,0.729,1.053,1.107c0.748,0.831,1.488,1.668,2.227,2.507c0.274,0.311,0.552,0.621,0.798,0.954
			c0.351,0.474,0.678,0.966,1.011,1.454c0.692,1.014,1.331,2.07,2.087,3.033c0.498,0.635,0.744,1.369,1.095,2.062
			c0.45,0.887,0.943,1.759,1.313,2.679c0.661,1.646,1.249,3.322,1.858,4.989c1.033,2.83,2.057,5.663,3.086,8.495
			c0.985,2.709,1.973,5.417,2.955,8.126c0.357,0.984,0.588,1.995,0.669,3.043c0.035,0.453,0.157,0.899,0.229,1.349
			c0.016,0.102,0.009,0.216-0.02,0.316c-0.136,0.47-0.573,0.707-0.853,1.067c-0.043,0.055-0.185,0.045-0.281,0.045
			c-1.103,0.004-2.206,0.004-3.309,0.004c-1.493,0-2.986-0.001-4.479-0.001c-7.722-0.001-15.444,0.001-23.165-0.005
			c-0.95-0.001-1.9-0.03-2.849-0.064c-0.586-0.021-1.243-0.368-1.484-1.105c-0.37-1.127-0.82-2.228-1.228-3.343
			c-0.303-0.829-0.59-1.663-0.891-2.493c-0.372-1.025-0.754-2.046-1.127-3.071c-0.418-1.146-0.829-2.295-1.249-3.44
			c-0.287-0.781-0.596-1.554-0.875-2.337c-0.554-1.559-1.088-3.125-1.643-4.684c-0.378-1.064-0.782-2.118-1.165-3.18
			c-0.384-1.064-0.752-2.133-1.136-3.197c-0.399-1.107-0.81-2.21-1.214-3.316c-0.37-1.013-0.735-2.029-1.109-3.041
			c-0.419-1.135-0.852-2.265-1.266-3.401c-0.863-2.367-1.706-4.742-2.588-7.102c-0.189-0.505-0.507-0.963-0.774-1.437
			c-0.313-0.556-0.627-1.113-0.957-1.658c-0.175-0.29-0.38-0.563-0.584-0.834c-0.283-0.375-0.594-0.73-0.863-1.115
			c-0.79-1.133-1.938-1.827-3.105-2.464c-1.144-0.625-2.386-1.038-3.675-1.262c-0.476-0.083-0.971-0.072-1.458-0.071
			c-0.736,0.002-1.472,0.028-2.207,0.054c-1.034,0.037-2.067,0.102-3.102,0.123c-1.714,0.034-3.429,0.048-5.144,0.06
			c-1.26,0.009-2.52,0.002-3.78,0.002c-1.506,0-3.013-0.005-4.519,0.003c-1.76,0.01-3.52,0.036-5.279,0.047
			c-0.634,0.004-0.708-0.043-0.935-0.702c-0.086-0.25-0.119-0.546-0.078-0.806c0.139-0.886,0.3-1.771,0.702-2.587
			c0.025-0.05,0.044-0.125,0.085-0.142c0.402-0.169,0.796-0.418,1.215-0.469c0.65-0.079,1.317-0.021,1.977-0.021
			C258.292,393.149,258.292,393.127,258.292,393.105z M321.254,445.673c0.178-0.018,0.527-0.038,0.871-0.092
			c1.567-0.246,2.821-1.039,3.882-2.196c0.978-1.067,1.442-2.33,1.487-3.751c0.042-1.317-0.469-2.437-1.276-3.46
			c-1.832-2.326-4.983-2.974-7.595-1.82c-1.714,0.758-2.712,2.145-3.362,3.829c-0.303,0.786-0.391,1.609-0.231,2.441
			C315.667,443.924,318.181,445.618,321.254,445.673z M317.594,414.077c0.019-1.43-0.301-2.356-0.737-3.249
			c-0.629-1.29-1.584-2.256-2.942-2.751c-0.564-0.205-1.176-0.279-1.768-0.403c-1.035-0.217-2.048-0.11-3.017,0.293
			c-2.329,0.969-4.269,3.641-3.562,6.865c0.478,2.18,1.752,3.616,3.876,4.293c1.045,0.333,2.103,0.507,3.203,0.268
			c0.97-0.211,1.793-0.702,2.589-1.258C316.788,417.049,317.528,415.53,317.594,414.077z M316.314,430.01
			c2.237-0.011,3.512-1.864,3.491-3.344c-0.024-1.662-1.453-3.394-3.543-3.372c-2.289,0.024-3.436,1.797-3.445,3.264
			C312.806,428.499,314.384,429.997,316.314,430.01z"/>
	</g>
</g>
</svg>
